<svg width="90" height="90" viewBox="0 0 90 90" fill="none" xmlns="http://www.w3.org/2000/svg">
<path d="M86.4 0H3.6C1.60875 0 0 1.60875 0 3.6V86.4C0 88.3913 1.60875 90 3.6 90H86.4C88.3913 90 90 88.3913 90 86.4V3.6C90 1.60875 88.3913 0 86.4 0ZM68.8162 26.2687C63.18 26.2687 62.0888 28.9462 62.0888 32.8837V41.5575H75.5437L73.7887 55.1362H62.0888V90H48.06V55.1475H36.3262V41.5575H48.06V31.545C48.06 19.9237 55.1587 13.59 65.5312 13.59C70.5037 13.59 74.7675 13.9613 76.0163 14.13V26.2687H68.8162Z" fill="#0FFFF8"/>
</svg>
