<svg width="91" height="91" viewBox="0 0 91 91" fill="none" xmlns="http://www.w3.org/2000/svg">
<path d="M45.9616 30.9575C37.6986 30.9575 30.9554 37.7008 30.9554 45.9639C30.9554 54.2269 37.6986 60.9703 45.9616 60.9703C54.2245 60.9703 60.9677 54.2269 60.9677 45.9639C60.9677 37.7008 54.2245 30.9575 45.9616 30.9575ZM90.9686 45.9639C90.9686 39.7497 91.0249 33.5918 90.6759 27.3888C90.327 20.1839 88.6834 13.7896 83.4149 8.52107C78.1352 3.24125 71.7522 1.6089 64.5475 1.25991C58.3334 0.910928 52.1756 0.967216 45.9728 0.967216C39.7587 0.967216 33.6009 0.910928 27.3981 1.25991C20.1934 1.6089 13.7992 3.25251 8.53071 8.52107C3.25099 13.8009 1.61867 20.1839 1.26969 27.3888C0.920709 33.603 0.976997 39.7609 0.976997 45.9639C0.976997 52.1668 0.920709 58.336 1.26969 64.5389C1.61867 71.7438 3.26225 78.1381 8.53071 83.4067C13.8104 88.6865 20.1934 90.3188 27.3981 90.6678C33.6122 91.0168 39.77 90.9605 45.9728 90.9605C52.1869 90.9605 58.3447 91.0168 64.5475 90.6678C71.7522 90.3188 78.1465 88.6752 83.4149 83.4067C88.6946 78.1268 90.327 71.7438 90.6759 64.5389C91.0362 58.336 90.9686 52.1781 90.9686 45.9639ZM45.9616 69.0532C33.1844 69.0532 22.8726 58.7413 22.8726 45.9639C22.8726 33.1865 33.1844 22.8745 45.9616 22.8745C58.7387 22.8745 69.0505 33.1865 69.0505 45.9639C69.0505 58.7413 58.7387 69.0532 45.9616 69.0532ZM69.9961 27.3213C67.0129 27.3213 64.6038 24.9121 64.6038 21.9289C64.6038 18.9456 67.0129 16.5365 69.9961 16.5365C72.9793 16.5365 75.3884 18.9456 75.3884 21.9289C75.3893 22.6373 75.2504 23.3389 74.9797 23.9935C74.7091 24.6481 74.3119 25.243 73.811 25.7439C73.3101 26.2448 72.7153 26.6419 72.0607 26.9126C71.4061 27.1833 70.7045 27.3222 69.9961 27.3213Z" fill="#08BFFF"/>
</svg>
