<svg width="91" height="91" viewBox="0 0 91 91" fill="none" xmlns="http://www.w3.org/2000/svg">
<path d="M45.25 0.25C20.3996 0.25 0.25 20.3996 0.25 45.25C0.25 70.1004 20.3996 90.25 45.25 90.25C70.1004 90.25 90.25 70.1004 90.25 45.25C90.25 20.3996 70.1004 0.25 45.25 0.25ZM66.8761 34.1708C66.9062 34.6429 66.9062 35.135 66.9062 35.6172C66.9062 50.3627 55.6763 67.3482 35.1551 67.3482C28.827 67.3482 22.9609 65.51 18.019 62.346C18.923 62.4464 19.7868 62.4866 20.7109 62.4866C25.9342 62.4866 30.7355 60.7187 34.5625 57.7254C29.6607 57.625 25.5424 54.4107 24.1362 49.9911C25.8538 50.2422 27.4007 50.2422 29.1685 49.7902C26.6446 49.2774 24.376 47.9066 22.7482 45.9108C21.1203 43.9149 20.2337 41.417 20.2388 38.8415V38.7009C21.7154 39.5346 23.4531 40.0469 25.2712 40.1172C23.7428 39.0986 22.4894 37.7186 21.6221 36.0996C20.7548 34.4806 20.3003 32.6726 20.2991 30.8359C20.2991 28.7567 20.8415 26.8583 21.8158 25.2109C24.6173 28.6596 28.1131 31.4802 32.0761 33.4894C36.039 35.4986 40.3804 36.6513 44.8181 36.8728C43.2411 29.2891 48.9063 23.1518 55.7165 23.1518C58.9308 23.1518 61.8237 24.4978 63.8627 26.6674C66.3839 26.1953 68.7946 25.2511 70.9442 23.9855C70.1105 26.567 68.3627 28.7467 66.0424 30.1228C68.2924 29.8817 70.462 29.2589 72.471 28.385C70.9542 30.615 69.0558 32.5937 66.8761 34.1708Z" fill="#0972B5"/>
</svg>
