<svg width="70" height="70" viewBox="0 0 70 70" fill="none" xmlns="http://www.w3.org/2000/svg">
<path d="M61.1211 0H70V7.80814H64.1421L44.6526 28.4607L39.4579 23.034L61.1211 0ZM33.1579 23.4244C34.1158 23.4244 35 23.8148 35.7737 24.5957L43.1421 32.4038C43.8053 33.1846 44.2105 34.0825 44.2105 35.1366L43.8421 36.6983L29.1053 67.9308C28.4053 69.2973 27.1158 70 25.7895 70C24.5 70 23.1737 69.2973 22.5105 67.9308L15.6579 53.4858L2.02632 46.4585C0.663158 45.6776 0 44.3112 0 42.9448C0 41.5784 0.663158 40.2119 2.02632 39.4311L31.5 23.8148C32.0158 23.4244 32.5684 23.4244 33.1579 23.4244ZM23.3947 34.4339L20.8158 37.0887L31.3158 48.2153L33.8211 45.4824L23.3947 34.4339ZM18.2 39.9386L15.5842 42.7105L26.0105 53.7591L28.6263 50.9872L18.2 39.9386Z" fill="black"/>
</svg>
